<svg xmlns="http://www.w3.org/2000/svg" xmlns:xlink="http://www.w3.org/1999/xlink" style="width: 0; height: 0; visibility: hidden; position: absolute;" aria-hidden="true"><symbol  viewBox='0 0 100 100' id='Icon'>
    <path d="M46.8 57h2.7c12 0 19.2-13.2 20.7-23.7.3-1.5.6-3.3.6-5.1.1-12.7-8-23.2-21.3-23.2S28.2 15.5 28.2 28.2c0 11.4 6.3 26.4 18.6 28.8zm17.5 3.6c-3.6-.9-4.8-.6-6.9 5.1l-7.2 20.7-7.5-20.7c-2.1-5.7-3.3-6-6.9-5.1-15.3 3.3-24 3.9-23.7 20.1v10.2c0 2.6 1.5 4 3 4H85c1.6 0 3.1-1.4 3.1-4.1V80.7c.2-16.2-8.5-16.8-23.8-20.1z"></path>
  </symbol><symbol  viewBox='0 0 38 24' id='amex'>
    <g fill="none"><path fill="#000" d="M35 0H3C1.3 0 0 1.3 0 3v18c0 1.7 1.4 3 3 3h32c1.7 0 3-1.3 3-3V3c0-1.7-1.4-3-3-3Z" opacity=".07"></path><path fill="#006FCF" d="M35 1c1.1 0 2 .9 2 2v18c0 1.1-.9 2-2 2H3c-1.1 0-2-.9-2-2V3c0-1.1.9-2 2-2h32"></path><path fill="#FFF" d="m8.971 10.268.774 1.876H8.203l.768-1.876Zm16.075.078h-2.977v.827h2.929v1.239h-2.923v.922h2.977v.739l2.077-2.245-2.077-2.34-.006.858Zm-14.063-2.34h3.995l.887 1.935L16.687 8h10.37l1.078 1.19L29.25 8h4.763l-3.519 3.852 3.483 3.828h-4.834l-1.078-1.19-1.125 1.19H10.03l-.494-1.19h-1.13l-.495 1.19H4L7.286 8h3.43l.267.006Zm8.663 1.078h-2.239l-1.5 3.536-1.625-3.536H12.06v4.81L10 9.084H8.007l-2.382 5.512H7.18l.494-1.19h2.596l.494 1.19h2.72v-3.935l1.751 3.941h1.19l1.74-3.929v3.93h1.458l.024-5.52-.001.001Zm9.34 2.768 2.531-2.768h-1.822l-1.601 1.726-1.548-1.726h-5.894v5.518h5.81l1.614-1.738 1.548 1.738h1.875l-2.512-2.75h-.001Z"></path></g>
  </symbol><symbol  viewBox='0 0 8 6' id='arrow_1'>
    <path d="M7 1H1l3 4 3-4Z" fill="#000" stroke="#000"></path>
  </symbol><symbol  viewBox='0 0 8 6' id='arrow_2'>
    <path d="m1.001 5.002 6-.004L3.998 1 1.001 5.002Z" fill="#000" stroke="#000"></path>
  </symbol><symbol  viewBox='0 0 100 100' id='basket'>
    <path d="M94.4 22.7c-.4-.1-.8-.2-1.2-.2H28.5L25 12.8c-2.1-6-7.8-10-14.2-9.9h-4c-2.2 0-3.9 1.8-3.9 3.9s1.8 3.9 3.9 3.9h3.9c3 0 5.7 1.9 6.7 4.7l15.2 42.4c1.7 4.7 6.1 7.8 11.1 7.8h32c5.1 0 9.6-3.2 11.2-8l10-30c.7-2-.4-4.2-2.5-4.9z"></path><circle cx="42.1" cy="85.3" r="11.8"></circle><circle cx="73.5" cy="85.3" r="11.8"></circle>
  </symbol><symbol  viewBox='0 0 512 512' id='capa_1'>
    <path d="M263.432 3.136c-4.16-4.171-10.914-4.179-15.085-.019l-.019.019-192 192c-4.093 4.237-3.975 10.99.262 15.083 4.134 3.992 10.687 3.992 14.82 0L245.213 36.416v464.917c0 5.891 4.776 10.667 10.667 10.667s10.667-4.776 10.667-10.667V36.416l173.781 173.781c4.093 4.237 10.845 4.355 15.083.262 4.237-4.093 4.354-10.845.262-15.083a10.787 10.787 0 0 0-.262-.262L263.432 3.136z"></path><path d="M447.88 213.333a10.663 10.663 0 0 1-7.552-3.115L255.88 25.749 71.432 210.219c-4.237 4.093-10.99 3.975-15.083-.262-3.992-4.134-3.992-10.687 0-14.82l192-192c4.165-4.164 10.917-4.164 15.083 0l192 192c4.159 4.172 4.149 10.926-.024 15.085a10.665 10.665 0 0 1-7.528 3.111z"></path><path d="M255.88 512c-5.891 0-10.667-4.776-10.667-10.667V10.667C245.213 4.776 249.989 0 255.88 0s10.667 4.776 10.667 10.667v490.667c-.001 5.89-4.776 10.666-10.667 10.666z"></path>
  </symbol><symbol  viewBox='0 0 38 24' id='diners-club'>
    <path opacity=".07" d="M35 0H3C1.3 0 0 1.3 0 3v18c0 1.7 1.4 3 3 3h32c1.7 0 3-1.3 3-3V3c0-1.7-1.4-3-3-3z"></path><path fill="#fff" d="M35 1c1.1 0 2 .9 2 2v18c0 1.1-.9 2-2 2H3c-1.1 0-2-.9-2-2V3c0-1.1.9-2 2-2h32"></path><path d="M12 12v3.7c0 .3-.2.3-.5.2-1.9-.8-3-3.3-2.3-5.4.4-1.1 1.2-2 2.3-2.4.4-.2.5-.1.5.2V12zm2 0V8.3c0-.3 0-.3.3-.2 2.1.8 3.2 3.3 2.4 5.4-.4 1.1-1.2 2-2.3 2.4-.4.2-.4.1-.4-.2V12zm7.2-7H13c3.8 0 6.8 3.1 6.8 7s-3 7-6.8 7h8.2c3.8 0 6.8-3.1 6.8-7s-3-7-6.8-7z" fill="#3086C8"></path>
  </symbol><symbol  viewBox='0 0 38 24' id='discover'>
    <path fill="#000" opacity=".07" d="M35 0H3C1.3 0 0 1.3 0 3v18c0 1.7 1.4 3 3 3h32c1.7 0 3-1.3 3-3V3c0-1.7-1.4-3-3-3z"></path><path d="M35 1c1.1 0 2 .9 2 2v18c0 1.1-.9 2-2 2H3c-1.1 0-2-.9-2-2V3c0-1.1.9-2 2-2h32z" fill="#fff"></path><path d="M3.57 7.16H2v5.5h1.57c.83 0 1.43-.2 1.96-.63.63-.52 1-1.3 1-2.11-.01-1.63-1.22-2.76-2.96-2.76zm1.26 4.14c-.34.3-.77.44-1.47.44h-.29V8.1h.29c.69 0 1.11.12 1.47.44.37.33.59.84.59 1.37 0 .53-.22 1.06-.59 1.39zm2.19-4.14h1.07v5.5H7.02v-5.5zm3.69 2.11c-.64-.24-.83-.4-.83-.69 0-.35.34-.61.8-.61.32 0 .59.13.86.45l.56-.73c-.46-.4-1.01-.61-1.62-.61-.97 0-1.72.68-1.72 1.58 0 .76.35 1.15 1.35 1.51.42.15.63.25.74.31.21.14.32.34.32.57 0 .45-.35.78-.83.78-.51 0-.92-.26-1.17-.73l-.69.67c.49.73 1.09 1.05 1.9 1.05 1.11 0 1.9-.74 1.9-1.81.02-.89-.35-1.29-1.57-1.74zm1.92.65c0 1.62 1.27 2.87 2.9 2.87.46 0 .86-.09 1.34-.32v-1.26c-.43.43-.81.6-1.29.6-1.08 0-1.85-.78-1.85-1.9 0-1.06.79-1.89 1.8-1.89.51 0 .9.18 1.34.62V7.38c-.47-.24-.86-.34-1.32-.34-1.61 0-2.92 1.28-2.92 2.88zm12.76.94-1.47-3.7h-1.17l2.33 5.64h.58l2.37-5.64h-1.16l-1.48 3.7zm3.13 1.8h3.04v-.93h-1.97v-1.48h1.9v-.93h-1.9V8.1h1.97v-.94h-3.04v5.5zm7.29-3.87c0-1.03-.71-1.62-1.95-1.62h-1.59v5.5h1.07v-2.21h.14l1.48 2.21h1.32l-1.73-2.32c.81-.17 1.26-.72 1.26-1.56zm-2.16.91h-.31V8.03h.33c.67 0 1.03.28 1.03.82 0 .55-.36.85-1.05.85z" fill="#231F20"></path><path d="M20.16 12.86a2.931 2.931 0 1 0 0-5.862 2.931 2.931 0 0 0 0 5.862z" fill="url(#a)"></path><path opacity=".65" d="M20.16 12.86a2.931 2.931 0 1 0 0-5.862 2.931 2.931 0 0 0 0 5.862z" fill="url(#b)"></path><path d="M36.57 7.506c0-.1-.07-.15-.18-.15h-.16v.48h.12v-.19l.14.19h.14l-.16-.2c.06-.01.1-.06.1-.13zm-.2.07h-.02v-.13h.02c.06 0 .09.02.09.06 0 .05-.03.07-.09.07z" fill="#231F20"></path><path d="M36.41 7.176c-.23 0-.42.19-.42.42 0 .23.19.42.42.42.23 0 .42-.19.42-.42 0-.23-.19-.42-.42-.42zm0 .77c-.18 0-.34-.15-.34-.35 0-.19.15-.35.34-.35.18 0 .33.16.33.35 0 .19-.15.35-.33.35z" fill="#231F20"></path><path d="M37 12.984S27.09 19.873 8.976 23h26.023a2 2 0 0 0 2-1.984l.024-3.02L37 12.985z" fill="#F48120"></path><defs><lineargradient id="a" x1="21.657" y1="12.275" x2="19.632" y2="9.104" gradientunits="userSpaceOnUse"><stop stop-color="#F89F20"></stop><stop offset=".25" stop-color="#F79A20"></stop><stop offset=".533" stop-color="#F68D20"></stop><stop offset=".62" stop-color="#F58720"></stop><stop offset=".723" stop-color="#F48120"></stop><stop offset="1" stop-color="#F37521"></stop></lineargradient><lineargradient id="b" x1="21.338" y1="12.232" x2="18.378" y2="6.446" gradientunits="userSpaceOnUse"><stop stop-color="#F58720"></stop><stop offset=".359" stop-color="#E16F27"></stop><stop offset=".703" stop-color="#D4602C"></stop><stop offset=".982" stop-color="#D05B2E"></stop></lineargradient></defs>
  </symbol><symbol  viewBox='0 0 100 100' id='exit'>
    <path d="m57 50 35.2-35.2c1.9-1.9 1.9-5.1 0-7-1.9-1.9-5.1-1.9-7 0L50 43 14.8 7.7c-1.9-1.9-5.1-1.9-7 0-1.9 1.9-1.9 5.1 0 7L43 50 7.7 85.2c-1.9 1.9-1.9 5.1 0 7 1 1 2.2 1.5 3.5 1.5s2.5-.5 3.5-1.5L50 57l35.2 35.2c1 1 2.2 1.5 3.5 1.5s2.5-.5 3.5-1.5c1.9-1.9 1.9-5.1 0-7L57 50z"></path>
  </symbol><symbol  viewBox='0 0 13 20' id='mail-arrow'>
    <path d="M11.55 17.983 3.747 10.03l7.702-8.048" stroke="#fff" stroke-width="4" fill="none"></path>
  </symbol><symbol  viewBox='0 0 38 24' id='master'>
    <path opacity=".07" d="M35 0H3C1.3 0 0 1.3 0 3v18c0 1.7 1.4 3 3 3h32c1.7 0 3-1.3 3-3V3c0-1.7-1.4-3-3-3z"></path><path fill="#fff" d="M35 1c1.1 0 2 .9 2 2v18c0 1.1-.9 2-2 2H3c-1.1 0-2-.9-2-2V3c0-1.1.9-2 2-2h32"></path><circle fill="#EB001B" cx="15" cy="12" r="7"></circle><circle fill="#F79E1B" cx="23" cy="12" r="7"></circle><path fill="#FF5F00" d="M22 12c0-2.4-1.2-4.5-3-5.7-1.8 1.3-3 3.4-3 5.7s1.2 4.5 3 5.7c1.8-1.2 3-3.3 3-5.7z"></path>
  </symbol><symbol  viewBox='0 0 19 12' id='menu'>
    <path d="M0 .5h19v2H0v-2Zm0 4.75h19V7H0V5.25Zm0 4.5h19v1.75H0V9.75Z" fill="#000"></path><path d="M0 .5h19v2H0v-2Zm0 4.75h19V7H0V5.25Zm0 4.5h19v1.75H0V9.75Z" fill="#000"></path>
  </symbol><symbol  viewBox='0 0 28 22' id='nav'>
    <path d="M0 0h28v3H0V0Zm0 8h28v3H0V8Zm0 8h28v3H0v-3Z" fill="#000"></path>
  </symbol><symbol  viewBox='0 0 38 24' id='paypal'>
    <path opacity=".07" d="M35 0H3C1.3 0 0 1.3 0 3v18c0 1.7 1.4 3 3 3h32c1.7 0 3-1.3 3-3V3c0-1.7-1.4-3-3-3z"></path><path fill="#fff" d="M35 1c1.1 0 2 .9 2 2v18c0 1.1-.9 2-2 2H3c-1.1 0-2-.9-2-2V3c0-1.1.9-2 2-2h32"></path><path fill="#003087" d="M23.9 8.3c.2-1 0-1.7-.6-2.3-.6-.7-1.7-1-3.1-1h-4.1c-.3 0-.5.2-.6.5L14 15.6c0 .2.1.4.3.4H17l.4-3.4 1.8-2.2 4.7-2.1z"></path><path fill="#3086C8" d="m23.9 8.3-.2.2c-.5 2.8-2.2 3.8-4.6 3.8H18c-.3 0-.5.2-.6.5l-.6 3.9-.2 1c0 .2.1.4.3.4H19c.3 0 .5-.2.5-.4v-.1l.4-2.4v-.1c0-.2.3-.4.5-.4h.3c2.1 0 3.7-.8 4.1-3.2.2-1 .1-1.8-.4-2.4-.1-.5-.3-.7-.5-.8z"></path><path fill="#012169" d="M23.3 8.1c-.1-.1-.2-.1-.3-.1-.1 0-.2 0-.3-.1-.3-.1-.7-.1-1.1-.1h-3c-.1 0-.2 0-.2.1-.2.1-.3.2-.3.4l-.7 4.4v.1c0-.3.3-.5.6-.5h1.3c2.5 0 4.1-1 4.6-3.8v-.2c-.1-.1-.3-.2-.5-.2h-.1z"></path>
  </symbol><symbol  viewBox='0 0 100 100' id='search'>
    <path d="M76.4 69.4c13.9-17.8 10.8-43.5-7-57.4C51.6-1.9 25.9 1.2 12 19-1.9 36.8 1.2 62.5 19 76.4 33.8 88 54.6 88 69.4 76.4l18.8 18.8c1.9 1.9 5.1 2 7 0 1.9-1.9 2-5.1 0-7L76.4 69.4zm-32.1 5.7c-17.1 0-30.9-13.8-30.9-30.9 0-17.1 13.8-30.9 30.9-30.9 17.1 0 30.9 13.8 30.9 30.9-.1 17.1-13.9 30.9-30.9 30.9z"></path>
  </symbol><symbol  viewBox='0 0 100 100' id='search_1'>
    <path d="M76.4 69.4c13.9-17.8 10.8-43.5-7-57.4C51.6-1.9 25.9 1.2 12 19-1.9 36.8 1.2 62.5 19 76.4 33.8 88 54.6 88 69.4 76.4l18.8 18.8c1.9 1.9 5.1 2 7 0 1.9-1.9 2-5.1 0-7L76.4 69.4zm-32.1 5.7c-17.1 0-30.9-13.8-30.9-30.9 0-17.1 13.8-30.9 30.9-30.9 17.1 0 30.9 13.8 30.9 30.9-.1 17.1-13.9 30.9-30.9 30.9z" fill="fff"></path>
  </symbol><symbol  viewBox='0 0 10 24' id='slider-left'>
    <path d="M9.5 1 1 12l8.5 11" stroke="#fff" fill="none"></path>
  </symbol><symbol  viewBox='0 0 11 24' id='slider-right'>
    <path d="M.987 22.995 9.5 12.005 1.013.995" stroke="#fff" fill="none"></path>
  </symbol><symbol  viewBox='0 0 38 24' id='visa'>
    <path opacity=".07" d="M35 0H3C1.3 0 0 1.3 0 3v18c0 1.7 1.4 3 3 3h32c1.7 0 3-1.3 3-3V3c0-1.7-1.4-3-3-3z"></path><path fill="#fff" d="M35 1c1.1 0 2 .9 2 2v18c0 1.1-.9 2-2 2H3c-1.1 0-2-.9-2-2V3c0-1.1.9-2 2-2h32"></path><path d="M28.3 10.1H28c-.4 1-.7 1.5-1 3h1.9c-.3-1.5-.3-2.2-.6-3zm2.9 5.9h-1.7c-.1 0-.1 0-.2-.1l-.2-.9-.1-.2h-2.4c-.1 0-.2 0-.2.2l-.3.9c0 .1-.1.1-.1.1h-2.1l.2-.5L27 8.7c0-.5.3-.7.8-.7h1.5c.1 0 .2 0 .2.2l1.4 6.5c.1.4.2.7.2 1.1.1.1.1.1.1.2zm-13.4-.3.4-1.8c.1 0 .2.1.2.1.7.3 1.4.5 2.1.4.2 0 .5-.1.7-.2.5-.2.5-.7.1-1.1-.2-.2-.5-.3-.8-.5-.4-.2-.8-.4-1.1-.7-1.2-1-.8-2.4-.1-3.1.6-.4.9-.8 1.7-.8 1.2 0 2.5 0 3.1.2h.1c-.1.6-.2 1.1-.4 1.7-.5-.2-1-.4-1.5-.4-.3 0-.6 0-.9.1-.2 0-.3.1-.4.2-.2.2-.2.5 0 .7l.5.4c.4.2.8.4 1.1.6.5.3 1 .8 1.1 1.4.2.9-.1 1.7-.9 2.3-.5.4-.7.6-1.4.6-1.4 0-2.5.1-3.4-.2-.1.2-.1.2-.2.1zm-3.5.3c.1-.7.1-.7.2-1 .5-2.2 1-4.5 1.4-6.7.1-.2.1-.3.3-.3H18c-.2 1.2-.4 2.1-.7 3.2-.3 1.5-.6 3-1 4.5 0 .2-.1.2-.3.2M5 8.2c0-.1.2-.2.3-.2h3.4c.5 0 .9.3 1 .8l.9 4.4c0 .1 0 .1.1.2 0-.1.1-.1.1-.1l2.1-5.1c-.1-.1 0-.2.1-.2h2.1c0 .1 0 .1-.1.2l-3.1 7.3c-.1.2-.1.3-.2.4-.1.1-.3 0-.5 0H9.7c-.1 0-.2 0-.2-.2L7.9 9.5c-.2-.2-.5-.5-.9-.6-.6-.3-1.7-.5-1.9-.5L5 8.2z" fill="#142688"></path>
  </symbol></svg>